<?xml version="1.0" encoding="UTF-8" standalone="no"?>
<svg
   data-name="Layer 1"
   preserveAspectRatio="xMidYMid meet"
   version="1.0"
   viewBox="-0.4 -0.4 355.0 415.7"
   zoomAndPan="magnify"
   style="fill: rgb(0, 0, 0);"
   original_string_length="5636"
   width="46.803888746337px"
   height="54.887289574595634px"
   id="svg2"
   xmlns:xlink="http://www.w3.org/1999/xlink"
   xmlns="http://www.w3.org/2000/svg"
   xmlns:svg="http://www.w3.org/2000/svg">
  <defs
     id="defs2">
    <linearGradient
       gradientUnits="userSpaceOnUse"
       id="__id6_scnuyi2l2g"
       x1="372.33"
       x2="-13.03"
       xlink:actuate="onLoad"
       xlink:show="other"
       xlink:type="simple"
       y1="207.48"
       y2="207.48"
       gradientTransform="matrix(-1,0,0,1,354.6,0)">
      <stop
         offset=".14"
         style="stop-color: rgb(250, 255, 0);"
         id="stop1" />
      <stop
         offset="1"
         style="stop-color: rgb(0, 0, 0);"
         id="stop2" />
    </linearGradient>
  </defs>
  <path
     d="m 135.86,207.48 a 11.27,11.27 0 1 0 11.26,-11.27 11.27,11.27 0 0 0 -11.26,11.27 z m 33.77,12 A 10.56,10.56 0 1 1 159.08,230 10.56,10.56 0 0 1 169.6,219.43 Z m 22.51,23.22 a 9.85,9.85 0 1 1 -9.84,9.84 9.84,9.84 0 0 1 9.84,-9.89 z m 22.46,23.16 a 9.14,9.14 0 1 1 -9.14,9.14 9.14,9.14 0 0 1 9.14,-9.14 z m 22.51,23.22 a 8.43,8.43 0 1 1 -8.43,8.43 8.42,8.42 0 0 1 8.48,-8.43 z m 22.56,23.21 a 7.73,7.73 0 1 1 -7.73,7.73 7.73,7.73 0 0 1 7.73,-7.73 z m 22.51,23.22 a 7,7 0 1 1 -7,7 7,7 0 0 1 7,-7 z m 22.51,23.22 a 6.31,6.31 0 1 1 -6.31,6.27 6.31,6.31 0 0 1 6.31,-6.27 z m 22.51,23.21 a 5.61,5.61 0 1 1 -5.6,5.61 5.61,5.61 0 0 1 5.6,-5.61 z m 22.5,23.22 a 4.9,4.9 0 1 1 -4.89,4.9 4.9,4.9 0 0 1 4.89,-4.9 z M 101.83,196.21 a 11.27,11.27 0 1 1 -11.23,11.27 11.28,11.28 0 0 1 11.23,-11.27 z m 22.51,23.22 A 10.56,10.56 0 1 1 113.79,230 10.56,10.56 0 0 1 124.34,219.43 Z m 22.51,23.22 a 9.85,9.85 0 1 1 -9.84,9.84 9.84,9.84 0 0 1 9.84,-9.84 z m 22.51,23.21 a 9.14,9.14 0 1 1 -9.14,9.14 9.14,9.14 0 0 1 9.14,-9.14 z m 22.51,23.22 a 8.43,8.43 0 1 1 -8.43,8.43 8.42,8.42 0 0 1 8.43,-8.43 z m 22.51,23.21 a 7.73,7.73 0 1 1 -7.78,7.71 7.72,7.72 0 0 1 7.78,-7.71 z m 22.51,23.22 a 7,7 0 1 1 -7,7 7,7 0 0 1 7,-7 z m 22.51,23.22 a 6.31,6.31 0 1 1 -6.31,6.31 6.31,6.31 0 0 1 6.31,-6.31 z m 22.51,23.21 a 5.61,5.61 0 1 1 -5.61,5.61 5.61,5.61 0 0 1 5.61,-5.61 z m 22.5,23.22 a 4.9,4.9 0 1 1 -4.89,4.9 4.9,4.9 0 0 1 4.89,-4.9 z M 56.55,196.21 a 11.27,11.27 0 1 1 -11.27,11.27 11.27,11.27 0 0 1 11.27,-11.27 z m 22.5,23.22 A 10.56,10.56 0 1 1 68.5,230 10.56,10.56 0 0 1 79.05,219.43 Z m 22.55,23.22 a 9.85,9.85 0 1 1 -9.84,9.84 9.84,9.84 0 0 1 9.84,-9.84 z m 22.51,23.21 a 9.14,9.14 0 1 1 -9.14,9.14 9.14,9.14 0 0 1 9.1,-9.14 z m 22.49,23.22 a 8.43,8.43 0 1 1 -8.43,8.43 8.42,8.42 0 0 1 8.43,-8.43 z m 22.51,23.21 a 7.73,7.73 0 1 1 -7.73,7.73 7.72,7.72 0 0 1 7.71,-7.73 z m 22.49,23.22 a 7,7 0 1 1 -7,7 7,7 0 0 1 7,-7 z m 22.51,23.22 a 6.31,6.31 0 1 1 -6.31,6.27 6.31,6.31 0 0 1 6.31,-6.27 z m 22.49,23.21 a 5.61,5.61 0 1 1 -5.61,5.61 5.61,5.61 0 0 1 5.61,-5.61 z m 22.5,23.22 a 4.9,4.9 0 1 1 -4.89,4.9 4.9,4.9 0 0 1 4.91,-4.9 z M 11.26,196.21 a 11.27,11.27 0 1 1 -11.27,11.27 11.27,11.27 0 0 1 11.27,-11.27 z m 22.5,23.22 A 10.56,10.56 0 1 1 23.21,230 10.56,10.56 0 0 1 33.76,219.43 Z m 22.51,23.22 a 9.85,9.85 0 1 1 -9.84,9.84 9.84,9.84 0 0 1 9.84,-9.84 z m 22.51,23.21 a 9.14,9.14 0 1 1 -9.18,9.14 9.14,9.14 0 0 1 9.18,-9.14 z m 22.51,23.22 a 8.43,8.43 0 1 1 -8.43,8.43 8.42,8.42 0 0 1 8.43,-8.43 z m 22.51,23.21 a 7.73,7.73 0 1 1 -7.73,7.73 7.72,7.72 0 0 1 7.73,-7.73 z m 22.51,23.22 a 7,7 0 1 1 -7,7 7,7 0 0 1 7,-7 z m 22.51,23.22 a 6.31,6.31 0 1 1 -6.31,6.31 6.31,6.31 0 0 1 6.31,-6.31 z m 22.51,23.21 a 5.61,5.61 0 1 1 -5.61,5.61 5.61,5.61 0 0 1 5.61,-5.61 z m 22.5,23.22 a 4.9,4.9 0 1 1 -4.89,4.9 4.9,4.9 0 0 1 4.89,-4.9 z M 169.6,174.41 A 10.56,10.56 0 1 1 159.08,185 10.56,10.56 0 0 1 169.6,174.41 Z m 22.51,-21.8 a 9.85,9.85 0 1 1 -9.84,9.85 9.85,9.85 0 0 1 9.87,-9.85 z m 22.49,-21.8 a 9.14,9.14 0 1 1 -9.14,9.14 9.14,9.14 0 0 1 9.14,-9.14 z M 237.16,109 a 8.43,8.43 0 1 1 -8.43,8.43 8.42,8.42 0 0 1 8.43,-8.43 z m 22.51,-21.79 a 7.73,7.73 0 1 1 -7.73,7.72 7.72,7.72 0 0 1 7.73,-7.72 z M 282.18,65.4 a 7,7 0 1 1 -7,7 7,7 0 0 1 7,-7 z m 22.51,-21.8 a 6.31,6.31 0 1 1 -6.31,6.31 6.32,6.32 0 0 1 6.31,-6.31 z M 327.2,21.8 a 5.61,5.61 0 1 1 -5.6,5.61 5.61,5.61 0 0 1 5.6,-5.61 z M 349.7,0 A 4.9,4.9 0 1 1 344.81,4.9 4.9,4.9 0 0 1 349.7,0 Z M 124.34,174.41 A 10.56,10.56 0 1 1 113.79,185 10.56,10.56 0 0 1 124.34,174.41 Z m 22.51,-2.11 a 9.85,9.85 0 1 1 9.85,-9.84 9.83,9.83 0 0 1 -9.85,9.84 z m 22.51,-23.21 a 9.14,9.14 0 1 1 9.14,-9.09 9.14,9.14 0 0 1 -9.14,9.09 z m 22.51,-23.22 a 8.43,8.43 0 1 1 8.43,-8.43 8.42,8.42 0 0 1 -8.43,8.43 z m 22.51,-23.21 a 7.73,7.73 0 1 1 7.72,-7.73 7.73,7.73 0 0 1 -7.72,7.73 z m 22.51,-23.22 a 7,7 0 1 1 7,-7 7,7 0 0 1 -7,7 z M 259.4,56.22 a 6.31,6.31 0 1 1 6.31,-6.31 6.3,6.3 0 0 1 -6.31,6.31 z M 281.91,33 a 5.61,5.61 0 1 1 5.6,-5.6 5.61,5.61 0 0 1 -5.6,5.6 z m 22.5,-23.21 a 4.9,4.9 0 1 1 4.9,-4.89 4.89,4.89 0 0 1 -4.9,4.89 z M 79.05,174.41 A 10.56,10.56 0 1 1 68.5,185 10.56,10.56 0 0 1 79.05,174.41 Z m 22.55,-2.11 a 9.85,9.85 0 1 1 9.85,-9.84 9.83,9.83 0 0 1 -9.85,9.84 z m 22.51,-23.21 a 9.14,9.14 0 1 1 9.14,-9.14 9.14,9.14 0 0 1 -9.18,9.14 z m 22.49,-23.22 a 8.43,8.43 0 1 1 8.43,-8.43 8.42,8.42 0 0 1 -8.43,8.43 z m 22.51,-23.21 a 7.73,7.73 0 1 1 7.72,-7.73 7.73,7.73 0 0 1 -7.74,7.73 z M 191.6,79.44 a 7,7 0 1 1 7,-7 7,7 0 0 1 -7,7 z m 22.51,-23.22 a 6.31,6.31 0 1 1 6.31,-6.31 6.3,6.3 0 0 1 -6.31,6.31 z M 236.6,33 a 5.61,5.61 0 1 1 5.6,-5.6 5.61,5.61 0 0 1 -5.6,5.6 z M 259.12,9.79 a 4.9,4.9 0 1 1 4.9,-4.89 4.89,4.89 0 0 1 -4.9,4.89 z M 33.76,174.41 A 10.56,10.56 0 1 1 23.21,185 10.56,10.56 0 0 1 33.76,174.41 Z m 22.51,-2.11 a 9.85,9.85 0 1 1 9.85,-9.84 9.83,9.83 0 0 1 -9.85,9.84 z m 22.51,-23.21 a 9.14,9.14 0 1 1 9.14,-9.14 9.14,9.14 0 0 1 -9.14,9.14 z m 22.51,-23.22 a 8.43,8.43 0 1 1 8.43,-8.43 8.42,8.42 0 0 1 -8.43,8.43 z m 22.51,-23.21 a 7.73,7.73 0 1 1 7.72,-7.73 7.73,7.73 0 0 1 -7.72,7.73 z m 22.51,-23.22 a 7,7 0 1 1 7,-7 7,7 0 0 1 -7,7 z m 22.51,-23.22 a 6.31,6.31 0 1 1 6.31,-6.31 6.3,6.3 0 0 1 -6.31,6.31 z M 191.33,33 a 5.61,5.61 0 1 1 5.6,-5.6 5.61,5.61 0 0 1 -5.6,5.6 z m 22.5,-23.21 a 4.9,4.9 0 1 1 4.9,-4.89 4.89,4.89 0 0 1 -4.9,4.89 z"
     style="fill:url(#__id6_scnuyi2l2g)"
     id="path2" />
</svg>
