<?xml version="1.0" encoding="UTF-8" standalone="no"?>
<svg
   fill="none"
   height="24"
   viewBox="0 0 24 24"
   width="24"
   version="1.1"
   id="svg1"
   sodipodi:docname="tiktok-icon.svg"
   inkscape:version="1.4.2 (f4327f4, 2025-05-13)"
   xmlns:inkscape="http://www.inkscape.org/namespaces/inkscape"
   xmlns:sodipodi="http://sodipodi.sourceforge.net/DTD/sodipodi-0.dtd"
   xmlns="http://www.w3.org/2000/svg"
   xmlns:svg="http://www.w3.org/2000/svg">
  <sodipodi:namedview
     id="namedview1"
     pagecolor="#ffffff"
     bordercolor="#000000"
     borderopacity="0.25"
     inkscape:showpageshadow="2"
     inkscape:pageopacity="0.0"
     inkscape:pagecheckerboard="0"
     inkscape:deskcolor="#d1d1d1"
     inkscape:zoom="35.625"
     inkscape:cx="12"
     inkscape:cy="12"
     inkscape:window-width="1920"
     inkscape:window-height="1057"
     inkscape:window-x="-8"
     inkscape:window-y="-8"
     inkscape:window-maximized="1"
     inkscape:current-layer="svg1" />
  <g
     clip-path="url(#clipPath10)"
     id="g1">
    <path
       d="m 18,9.5 c -4,0 -4,-4 -4,-4 v 9 C 14,16.5 12.5,18 10.5,18 8.5,18 7,16.5 7,14.5 7,12.5 8.5,11 10.5,11 M 23,12 C 23,18.0751 18.0751,23 12,23 5.92487,23 1,18.0751 1,12 1,5.92487 5.92487,1 12,1 18.0751,1 23,5.92487 23,12 Z"
       stroke="#000000"
       stroke-linecap="round"
       stroke-linejoin="round"
       stroke-width="2"
       id="path1"
       style="display:inline;stroke:#fbff2a;stroke-opacity:1" />
  </g>
  <defs
     id="defs1">
    <clipPath
       clipPathUnits="userSpaceOnUse"
       id="clipPath10">
      <path
         id="path11"
         style="fill:#ffffff"
         d="M 0,0 V 24 H 24 V 0 Z m 13.744141,3.578125 c 0.631516,-0.029291 0.961148,0.2855897 1.296875,0.6816406 0.06451,0.076098 0.117618,0.1630902 0.175781,0.2441406 0.207999,0.3119777 0.407486,0.6301064 0.587891,0.9589844 0.110863,0.2021037 0.14956,0.2856026 0.25,0.4882813 0.203223,0.3997595 0.351867,0.8216847 0.474609,1.2519531 0.06191,0.2228973 0.10239,0.4509431 0.130859,0.6796875 0.023,0.01128 0.04624,0.020311 0.07031,0.029297 0.04436,0.016564 0.08981,0.030046 0.134765,0.044922 0.06469,0.017718 0.129361,0.032714 0.195313,0.044922 0.157739,-0.064777 0.327225,-0.1252843 0.498047,-0.1386719 0.119973,-0.0094 0.240993,-0.00275 0.361328,-0.00391 0.354631,0.077049 0.391057,0.056405 0.734375,0.2832031 0.220019,0.145346 0.377744,0.3702105 0.507812,0.59375 0.122737,0.2118463 0.194081,0.4450144 0.242188,0.6835938 0.04779,0.2639111 0.04064,0.5385043 -0.02539,0.7988285 -0.01523,0.06004 -0.03363,0.118214 -0.05078,0.177734 -0.04519,0.09979 -0.08468,0.202439 -0.136719,0.298828 -0.151418,0.280499 -0.42114,0.564915 -0.6875,0.740235 -0.08948,0.0589 -0.184864,0.108049 -0.277344,0.162109 -0.356217,0.171196 -0.739011,0.281423 -1.132812,0.320313 -0.08302,0.0082 -0.16673,0.01043 -0.25,0.01563 -0.278752,0.0068 -0.559223,-0.01844 -0.832031,-0.07617 -0.04289,-0.0091 -0.07626,-0.0162 -0.105469,-0.02344 -0.0076,0.296399 -0.01814,0.592406 -0.0293,0.888672 -0.01748,0.453877 -0.03515,0.907383 -0.05078,1.361328 -0.03038,0.88225 -0.334987,1.474805 -0.732422,1.783204 -0.1023,0.299894 -0.251718,0.57765 -0.470703,0.666015 -0.09425,0.209516 -0.195855,0.415494 -0.306641,0.617188 0.003,0.0027 0.0067,0.0051 0.0098,0.0078 -0.09463,0.268275 -0.168724,0.54513 -0.285156,0.804688 -0.04734,0.10553 -0.132645,0.18954 -0.203125,0.28125 -0.215494,0.280387 -0.461552,0.533776 -0.71875,0.77539 -0.10709,0.08811 -0.297489,0.255235 -0.421875,0.302735 -0.209179,0.07988 -0.459787,0.302255 -0.648438,0.18164 -0.05472,-0.03499 -0.108211,-0.07015 -0.162109,-0.107422 -0.265567,0.175837 -0.53015,0.356563 -0.832031,0.466797 C 10.852144,19.937239 10.669244,19.981332 10.474609,20 10.35256,20.136146 10.221427,20.260656 10.050781,20.283203 9.5129922,20.354266 8.9409474,20.264511 8.4375,20.0625 8.1429206,19.944298 7.9916922,19.436313 7.8867188,19.146484 c -0.01537,-0.05573 -0.031221,-0.112312 -0.046875,-0.167968 -0.045617,-0.03209 -0.091373,-0.06356 -0.1367188,-0.0957 -0.096474,-0.07869 -0.2986093,-0.234277 -0.4863281,-0.40625 -0.1172633,0.05037 -0.2361035,0.128048 -0.3554688,0.09766 -0.519331,-0.132227 -0.9952804,-0.400885 -1.4921875,-0.601563 0.032791,-0.568611 0.00512,-1.143415 0.099609,-1.705078 0.01765,-0.104912 0.1472325,-0.153719 0.2265625,-0.224609 0.06148,-0.05494 0.1265819,-0.104806 0.1953125,-0.150391 -0.00322,-0.0092 -0.00474,-0.01808 -0.00781,-0.02734 C 5.7837286,15.566776 5.721698,15.25154 5.685549,14.939464 5.671264,14.81614 5.655336,14.692483 5.652346,14.56837 c -0.00361,-0.149766 0.00781,-0.299459 0.011719,-0.449218 0.042078,-0.18083 0.070146,-0.364259 0.1269531,-0.541016 0.021338,-0.06639 0.049505,-0.131354 0.082031,-0.193359 0.018105,-0.127103 0.040302,-0.25356 0.0625,-0.378907 0.058729,-0.233431 0.076651,-0.3281 0.1660156,-0.560547 0.1596436,-0.415246 0.397675,-0.791207 0.703125,-1.113281 -0.032201,-0.253869 -0.024396,-0.512585 0.027344,-0.773437 C 6.8673577,10.380513 6.9163457,10.199816 7.007815,10.04298 7.1369907,9.821475 7.325565,9.6388102 7.484375,9.4375 7.8345841,9.3077674 8.1660009,9.105407 8.5351562,9.0488281 c 0.026648,-0.00408 0.053323,-0.00628 0.080078,-0.00781 C 8.7786178,8.7199185 8.8585617,8.5076453 9.1757812,8.265625 9.5362599,7.9906006 9.8764947,7.8647279 10.326172,7.859375 c 0.418738,-0.00498 0.567553,0.091056 0.927734,0.2382812 0.12006,0.082379 0.250576,0.1512815 0.359375,0.2480469 0.45651,0.4060195 0.6727,0.9117774 0.626953,1.5351563 -0.032,0.4360256 -0.198063,0.6223236 -0.410156,0.9550786 -0.101332,0.129443 -0.213555,0.246253 -0.333984,0.355468 0.01492,0.07068 0.02368,0.143403 0.02734,0.216797 0.03125,0.02542 0.06093,0.05221 0.08789,0.08203 0.119957,0.13269 0.286656,0.254393 0.322266,0.429688 0.08466,0.416754 0.01739,0.850201 0.02539,1.27539 -0.283179,0.254511 -0.509025,0.593472 -0.849609,0.763672 -0.239639,0.11975 -0.535537,0.07988 -0.802734,0.06055 -0.173483,-0.01255 -0.3360537,-0.09096 -0.4980472,-0.154297 -0.051245,-0.02004 -0.1131229,-0.05183 -0.1796876,-0.08789 -0.016121,8.45e-4 -0.032676,0.0015 -0.048828,0.002 -0.287533,0.225791 -0.5673199,0.384314 -0.8320312,0.484375 -0.00449,0.02604 -0.010192,0.05254 -0.015625,0.07813 -0.013379,0.06301 -0.026996,0.124947 -0.048828,0.185547 -0.036814,0.102185 -0.084596,0.200766 -0.1269532,0.300781 -0.00482,0.0053 -0.00895,0.01017 -0.013672,0.01563 0.054323,0.0013 0.105931,0.01231 0.15625,0.03711 0.5260199,0.259197 0.8879821,0.765423 1.3320312,1.148438 0.05379,0.178687 0.101676,0.359662 0.144531,0.541015 0.25316,0.06806 0.470789,0.119389 0.658203,0.160157 0.228061,-0.149217 0.455542,-0.299901 0.679688,-0.455078 0.03483,-0.0229 0.06947,-0.04623 0.103516,-0.07031 0.03891,-0.0607 0.0763,-0.121687 0.113281,-0.183594 0.03877,-0.0649 0.07426,-0.131375 0.111328,-0.197265 0.188335,-0.339145 0.337638,-0.697583 0.472656,-1.060547 0.07714,-0.200944 0.131621,-0.409925 0.212891,-0.609375 0.02334,-0.172324 0.04506,-0.344963 0.06641,-0.517578 0.01906,-0.269319 0.0737,-0.541583 0.05273,-0.8125 -0.06048,-0.47744 -0.124883,-0.954722 -0.189453,-1.431641 -0.09808,-0.715221 -0.1548,-1.4354816 -0.21875,-2.1542968 -0.0547,-0.5655953 -0.08377,-1.1313594 -0.09961,-1.6992187 -0.0088,-0.3104773 -0.01363,-0.6212315 -0.002,-0.9316406 0.01064,-0.3135361 0.048,-0.6253035 0.07617,-0.9375 0.02498,-0.2862612 0.05445,-0.5725972 0.105468,-0.8554688 0.03525,-0.1107105 0.05198,-0.228888 0.105469,-0.3320312 0.271983,-0.5244703 0.614351,-0.8715529 1.320313,-0.9042969 z m -1.128907,2.8066406 c -0.0302,0.017842 -0.05144,0.033471 -0.06055,0.046875 -2.57e-4,4.655e-4 -0.0011,0.00267 -0.002,0.00391 l -0.002,0.00195 v 0.00195 0.00195 l -0.002,0.00195 v 0.00195 h 0.002 v 0.00195 0.00195 l 0.002,0.00195 v 0.00195 l 0.002,0.00195 c 0.0073,0.00536 0.02326,0.010444 0.04297,0.013672 0.0064,-0.028219 0.01147,-0.055726 0.01758,-0.083984 z m 4.480469,1.6230469 c 0.01539,0.00263 0.0314,0.00584 0.04687,0.00781 0.01,0.00128 0.01954,0.00552 0.0293,0.00391 h 0.002 l 0.002,-0.00195 h 0.002 v -0.00195 h -0.002 c -0.0056,-0.00124 -0.01856,-0.00263 -0.02344,-0.00391 -0.02019,-0.00515 -0.03787,-0.00575 -0.05664,-0.00391 z M 11.246094,9.9980469 11.244141,10 c -0.0018,9.78e-4 -0.0064,0.003 -0.0078,0.0039 l -0.002,0.002 -0.002,0.002 -0.002,0.002 c -0.0031,0.0053 -0.0057,0.01149 -0.0078,0.01563 0.0031,0.0067 0.0068,0.01286 0.0098,0.01953 0.0043,-0.01557 0.0085,-0.03169 0.01367,-0.046875 z m 1.472656,5.4843751 c 0.04358,0.05142 0.09628,0.09726 0.164062,0.136719 -0.05491,-0.04646 -0.108499,-0.09192 -0.164062,-0.136719 z" />
    </clipPath>
  </defs>
  <path
     d="m 12.836728,3.3690224 c 0.936859,-0.014636 1.86835,-0.00597 2.798767,-0.014636 0.05637,1.1063871 0.450443,2.2333731 1.252546,3.0155953 0.800491,0.8017378 1.932775,1.168727 3.034457,1.2928635 v 2.9104308 c -1.032424,-0.03415 -2.069681,-0.250982 -3.00654,-0.6998251 -0.40803,-0.186476 -0.788142,-0.426618 -1.160202,-0.672181 -0.0048,2.1119471 0.0086,4.2211831 -0.01342,6.3244571 -0.05584,1.010439 -0.386018,2.015998 -0.967998,2.848634 -0.936323,1.386102 -2.561465,2.28975 -4.230631,2.317938 C 9.5198672,20.751391 8.4971068,20.469504 7.6246735,19.950191 6.1788511,19.089367 5.16146,17.513537 5.0132808,15.822244 4.9961028,15.460677 4.9901908,15.099652 5.0046608,14.746756 5.1335124,13.371497 5.8072995,12.055868 6.8531451,11.160892 8.0385809,10.11847 9.6991575,9.6219239 11.253967,9.9157329 c 0.0145,1.0706091 -0.02792,2.1401351 -0.02792,3.2107441 -0.710293,-0.232011 -1.5403129,-0.166961 -2.1609486,0.26833 -0.4531281,0.296518 -0.7972702,0.750782 -0.976589,1.264675 -0.1481791,0.366447 -0.1057655,0.773549 -0.097175,1.162762 0.1701909,1.186074 1.2997911,2.18296 2.5056276,2.075087 0.799418,-0.0087 1.565548,-0.477032 1.982169,-1.162764 0.134757,-0.240142 0.285621,-0.485705 0.293674,-0.768129 0.07033,-1.292863 0.04242,-2.580304 0.05101,-3.873167 0.0059,-2.9136841 -0.0086,-5.819237 0.01343,-8.7237063 z"
     id="path1-8"
     style="display:inline;fill:#fbff2a;fill-opacity:1;stroke-width:0.539475" />
</svg>
