<?xml version="1.0" encoding="UTF-8" standalone="no"?>
<svg
   height="120"
   version="1.1"
   viewBox="0 0 120 120"
   width="120"
   xml:space="preserve"
   id="svg1"
   sodipodi:docname="web-icon.svg"
   inkscape:version="1.4.2 (f4327f4, 2025-05-13)"
   xmlns:inkscape="http://www.inkscape.org/namespaces/inkscape"
   xmlns:sodipodi="http://sodipodi.sourceforge.net/DTD/sodipodi-0.dtd"
   xmlns="http://www.w3.org/2000/svg"
   xmlns:svg="http://www.w3.org/2000/svg"><sodipodi:namedview
     id="namedview1"
     pagecolor="#ffffff"
     bordercolor="#000000"
     borderopacity="0.25"
     inkscape:showpageshadow="2"
     inkscape:pageopacity="0.0"
     inkscape:pagecheckerboard="0"
     inkscape:deskcolor="#d1d1d1"
     inkscape:zoom="6.3333333"
     inkscape:cx="59.921053"
     inkscape:cy="67.5"
     inkscape:window-width="1920"
     inkscape:window-height="1057"
     inkscape:window-x="-8"
     inkscape:window-y="-8"
     inkscape:window-maximized="1"
     inkscape:current-layer="svg1" /><style
     type="text/css"
     id="style1">
<![CDATA[
	.st0{fill:#EF3E42;}
	.st1{fill:#FFFFFF;}
	.st2{fill:none;}
	.st3{fill-rule:evenodd;clip-rule:evenodd;fill:#FFFFFF;}
]]>
</style><defs
     id="defs1" /><path
     d="m 41.099441,35.347104 c -2.220935,6.440711 -3.553496,13.325609 -3.997683,20.543647 H 56.201797 V 35.347104 Z M 44.54189,27.018598 H 56.201797 V 10.58368 C 51.537834,15.247644 47.651198,20.799981 44.54189,27.018598 Z m -9.105833,0 c 2.443028,-5.663384 5.552337,-10.993627 9.216879,-15.768637 -9.438972,2.998262 -17.545384,8.661646 -23.430862,15.768637 z m 69.737353,8.328506 H 88.294305 c 1.998842,6.440711 3.220356,13.325609 3.553496,20.543647 h 19.544219 c -0.55523,-7.440132 -2.77616,-14.32503 -6.21861,-20.543647 z M 83.519296,55.890751 C 83.186155,48.672713 81.742548,41.787815 79.521613,35.347104 H 64.419256 V 55.890751 Z M 76.079164,27.018598 C 73.080902,20.799981 69.083219,15.247644 64.419256,10.58368 v 16.434918 z m 9.105833,0 H 99.398979 C 93.402455,20.022654 85.296043,14.248223 75.968117,11.249961 c 3.664543,4.77501 6.773851,10.105253 9.21688,15.768637 z M 15.447644,84.762903 H 32.326748 C 30.327907,78.322192 29.106393,71.437294 28.773253,64.219256 H 9.229026 c 0.6662804,7.440132 2.776169,14.436077 6.218618,20.543647 z M 37.101758,64.219256 c 0.33314,7.218038 1.776748,14.102936 3.997683,20.543647 H 56.201797 V 64.219256 Z m 7.440132,28.872153 c 3.109308,6.218617 7.106991,11.770951 11.659907,16.434921 V 93.091409 Z m -9.105833,0 H 21.111028 c 5.996524,6.995941 14.102936,12.770371 23.430862,15.768641 -3.553496,-4.66397 -6.662805,-9.994211 -9.105833,-15.768641 z m 52.858248,-8.328506 h 16.879105 c 3.44245,-6.218617 5.55234,-13.103515 6.21861,-20.543647 H 91.847801 c -0.33314,7.218038 -1.554654,14.102936 -3.553496,20.543647 z m -8.772692,0 c 2.220935,-6.440711 3.553496,-13.325609 3.997683,-20.543647 h -19.10004 v 20.543647 z m -3.442449,8.328506 H 64.419256 v 16.434921 c 4.663963,-4.55292 8.661646,-10.105257 11.659908,-16.434921 z m 9.105833,0 c -2.443029,5.663384 -5.552337,10.993631 -9.21688,15.768641 9.438973,-2.99827 17.545385,-8.66165 23.430862,-15.768641 z M 32.326748,35.347104 H 15.447644 C 12.005195,41.565721 9.8953064,48.561666 9.229026,55.890751 h 19.544227 c 0.444187,-7.106992 1.665701,-14.102936 3.553495,-20.543647 z m 27.983779,84.284476 c -32.869835,0 -59.52105332,-26.651218 -59.52105332,-59.521053 0,-32.869835 26.65121832,-59.52105332 59.52105332,-59.52105332 32.869835,0 59.521053,26.65121832 59.521053,59.52105332 0,32.869835 -26.651218,59.521053 -59.521053,59.521053 z"
     id="path1"
     inkscape:label="path1"
     style="stroke-width:1.11047;fill:#ffffff;fill-opacity:1" /></svg>
