<?xml version="1.0" encoding="UTF-8" standalone="no"?>
<svg
   id="Layer_1"
   style="enable-background:new 0 0 32 32;"
   version="1.1"
   viewBox="0 0 32 32"
   xml:space="preserve"
   sodipodi:docname="ubicacion-icon.svg"
   inkscape:version="1.4.2 (f4327f4, 2025-05-13)"
   xmlns:inkscape="http://www.inkscape.org/namespaces/inkscape"
   xmlns:sodipodi="http://sodipodi.sourceforge.net/DTD/sodipodi-0.dtd"
   xmlns="http://www.w3.org/2000/svg"
   xmlns:svg="http://www.w3.org/2000/svg"><defs
     id="defs1" /><sodipodi:namedview
     id="namedview1"
     pagecolor="#ffffff"
     bordercolor="#000000"
     borderopacity="0.25"
     inkscape:showpageshadow="2"
     inkscape:pageopacity="0.0"
     inkscape:pagecheckerboard="0"
     inkscape:deskcolor="#d1d1d1"
     inkscape:zoom="26.71875"
     inkscape:cx="16"
     inkscape:cy="16"
     inkscape:window-width="1920"
     inkscape:window-height="1057"
     inkscape:window-x="-8"
     inkscape:window-y="-8"
     inkscape:window-maximized="1"
     inkscape:current-layer="Layer_1" /><path
     d="m 31.275541,20.312044 -8.4771,-5.49989 c 1.113613,-1.818145 1.693146,-3.897649 1.70451,-6.1930573 C 24.514315,3.9714631 20.741663,0.17608495 16.094029,0.17608495 11.435032,0.16472154 7.6510178,3.9260094 7.628291,8.5850065 7.6169276,10.880414 8.1850979,12.959919 9.2987119,14.789427 L 0.798883,20.243863 c -0.35226555,0.227267 -0.56817036,0.624987 -0.56817036,1.056796 -0.0113634,0.43181 0.20454137,0.818166 0.56817036,1.056797 l 14.522435,9.431629 c 0.204541,0.13636 0.443173,0.204541 0.681804,0.204541 0.238632,0 0.477263,-0.06818 0.681805,-0.204541 l 14.579251,-9.363449 c 0.363629,-0.227267 0.579534,-0.624986 0.579534,-1.056796 0,-0.43181 -0.204541,-0.829529 -0.568171,-1.056796 z M 19.855317,8.5622797 c -0.01136,2.0795033 -1.70451,3.7726503 -3.795378,3.7726503 -2.079503,0 -3.772651,-1.70451 -3.772651,-3.7840137 0.01136,-2.090867 1.704512,-3.7840148 3.795378,-3.7726513 2.079504,0 3.772651,1.704511 3.772651,3.7840147 z M 16.014486,29.232317 3.7988226,21.289296 l 7.0112224,-4.499909 0.07954,0.07954 c 0.06818,0.06818 0.13636,0.136361 0.20454,0.204541 0.07955,0.07954 0.159089,0.159089 0.238632,0.238631 0.06818,0.06818 0.136361,0.124998 0.204542,0.193179 0.07954,0.07954 0.159088,0.147724 0.238631,0.215904 0.06818,0.05681 0.136362,0.113635 0.204542,0.170452 0.07954,0.06818 0.159087,0.136362 0.238631,0.204541 0.06818,0.04545 0.136361,0.102265 0.193178,0.147724 0.07955,0.05681 0.17045,0.124999 0.249995,0.181815 0.05681,0.04545 0.113634,0.07954 0.181815,0.13636 0.07954,0.05681 0.17045,0.113635 0.261358,0.170452 0.04545,0.03408 0.102276,0.06818 0.147724,0.102266 0.136361,0.07954 0.272722,0.170451 0.397719,0.238632 0.04545,0.03409 0.113635,0.06818 0.159088,0.102266 0.07955,0.04545 0.147725,0.07954 0.215904,0.113633 0.05682,0.03408 0.113635,0.06818 0.170452,0.09091 0.05681,0.03408 0.113635,0.06818 0.170451,0.102266 0.05681,0.02273 0.113634,0.04545 0.159088,0.07955 0.05682,0.02273 0.113635,0.04545 0.159088,0.07954 0.04545,0.02273 0.102266,0.04545 0.147723,0.06818 0.04545,0.02273 0.09091,0.04545 0.136361,0.06818 0.04545,0.01136 0.09091,0.03408 0.124999,0.05681 0.04545,0.01136 0.07954,0.02273 0.113633,0.04545 0.04545,0.01136 0.07954,0.03408 0.113635,0.04545 0.03408,0.01136 0.05681,0.01136 0.07954,0.03408 0.03408,0.01136 0.05682,0.01136 0.07955,0.02273 0.02273,0.01136 0.04545,0.02273 0.06818,0.03409 0.01136,0 0.02273,0.01136 0.04545,0.01136 0.02273,0.01136 0.04545,0.01136 0.04545,0.02273 0.136362,0.04545 0.272723,0.06818 0.39772,0.06818 0.147724,0 0.272722,-0.02273 0.409083,-0.06818 0.01136,0 0.02273,-0.01136 0.04545,-0.01136 0.01136,-0.01136 0.02273,-0.01136 0.04545,-0.01136 0.02273,-0.01136 0.04545,-0.01136 0.06818,-0.02273 0.02273,-0.01136 0.04545,-0.02273 0.07955,-0.03409 0.02273,-0.01136 0.04545,-0.01136 0.07954,-0.03408 0.03408,-0.01136 0.06818,-0.02273 0.102276,-0.04545 0.03408,-0.01136 0.07954,-0.03408 0.113634,-0.04545 0.03408,-0.01136 0.07954,-0.03408 0.113634,-0.04545 0.04545,-0.02273 0.09091,-0.04545 0.147725,-0.06818 0.04545,-0.02273 0.09091,-0.04545 0.147725,-0.06818 0.04545,-0.02273 0.102265,-0.04545 0.147723,-0.07954 0.05681,-0.02273 0.113634,-0.05682 0.170452,-0.07955 0.04545,-0.02273 0.113634,-0.05681 0.17045,-0.09091 0.05681,-0.03408 0.113634,-0.05681 0.181815,-0.09091 0.05681,-0.03408 0.113635,-0.07955 0.181814,-0.113634 0.06818,-0.03408 0.124997,-0.07954 0.193178,-0.113634 0.07955,-0.05682 0.170452,-0.113634 0.272722,-0.170452 0.113634,-0.06818 0.215905,-0.147723 0.329538,-0.215904 0.06818,-0.04545 0.136362,-0.07954 0.204542,-0.124998 0.07954,-0.05682 0.147724,-0.113634 0.227268,-0.17045 0.06818,-0.04545 0.136361,-0.09091 0.204542,-0.147724 0.07954,-0.05681 0.147724,-0.124999 0.238631,-0.181816 0.06818,-0.05681 0.136361,-0.113633 0.204542,-0.170451 0.07954,-0.05682 0.159087,-0.124997 0.238631,-0.193177 0.06818,-0.05681 0.147725,-0.124997 0.204541,-0.181815 0.07955,-0.06818 0.147725,-0.147724 0.238633,-0.215905 0.06818,-0.06818 0.13636,-0.13636 0.204541,-0.204541 0.07955,-0.07954 0.147724,-0.147725 0.227268,-0.227268 0.01136,-0.02273 0.04545,-0.04545 0.06818,-0.07955 l 6.99986,4.545363 z"
     id="path1"
     style="fill:#fbff2a;fill-opacity:1;stroke-width:1.13634" /></svg>
